# xmcd CD database file
#
# Track frame offsets:
#	150
#	13691
#	33536
#	52909
#	66237
#	80282
#	95226
#	109014
#	121718
#	136428
#	150067
#	164023
#	177127
#	192889
#	206906
#	222137
#	233626
#	247421
#	263113
#	277740
#	292138
#
# Disc length: 4084 seconds
#
# Revision: 3
# Processed by: cddbd v1.5.2PL0 Copyright (c) Steve Scherf et al.
# Submitted via: CDex 1.51
#
DISCID=2d0ff215
DTITLE=Louis Armstrong  and the big bands - Une Anthologie 1945 - 1955 CD 1/2
DYEAR=2006
DGENRE=Jazz
TTITLE0=I Wonder
TTITLE1=Long, Long Journey
TTITLE2=Snafu
TTITLE3=Whatta Ya Gonna Do
TTITLE4=Joseph 'n' His Brudders
TTITLE5=Back O' Town Blues
TTITLE6=I Believe
TTITLE7=You Don't Learn That In School
TTITLE8=Maybe It's Because
TTITLE9=I'll Keep The Lovelight Burning
TTITLE10=That Lucky Old Sun
TTITLE11=Blueberry Hill
TTITLE12=La Vie En Rose
TTITLE13=C'est Si Bon
TTITLE14=If
TTITLE15=Gone Fishin'
TTITLE16=A Kiss To Build A Drem On
TTITLE17=I Get Ideas
TTITLE18=Because Of You
TTITLE19=Cold, Cold Heart
TTITLE20=Indian Love Call
EXTD=YEAR: 2006
EXTT0=
EXTT1=
EXTT2=
EXTT3=
EXTT4=
EXTT5=
EXTT6=
EXTT7=
EXTT8=
EXTT9=
EXTT10=
EXTT11=
EXTT12=
EXTT13=
EXTT14=
EXTT15=
EXTT16=
EXTT17=
EXTT18=
EXTT19=
EXTT20=
PLAYORDER=
